<svg version="1.1" id="Layer_1" xmlns="http://www.w3.org/2000/svg" xmlns:xlink="http://www.w3.org/1999/xlink" x="0px" y="0px"
	 width="100%" viewBox="0 0 1024 560" enable-background="new 0 0 1024 560" xml:space="preserve">
<path fill="#000000" opacity="1.000000" stroke="none" 
	d="
M595.771973,224.618835 
	C584.640930,244.836441 566.291870,254.231445 545.523926,260.104767 
	C534.314392,263.274872 522.968750,265.977509 511.811768,269.316101 
	C498.549561,273.284668 488.082550,280.618286 484.035339,294.769012 
	C482.544800,299.980560 483.006287,300.659729 488.340057,300.673706 
	C508.168060,300.725739 527.996277,300.705444 547.824402,300.716583 
	C549.323669,300.717438 550.827576,300.683533 552.321228,300.784973 
	C555.432312,300.996246 557.434204,302.544189 557.233032,305.823822 
	C557.038391,308.995422 555.044922,310.440582 551.881042,310.485809 
	C542.888855,310.614319 533.898193,310.896790 524.905884,310.950531 
	C511.263031,311.032074 497.619324,310.971863 483.706024,310.971863 
	C482.060638,319.009857 485.269135,326.665466 484.192963,335.489990 
	C471.467529,327.479919 462.639496,317.335846 459.710388,302.915863 
	C455.163544,280.531342 464.367188,264.712128 491.500671,247.820694 
	C490.392578,245.378632 489.187531,242.877350 488.115448,240.320328 
	C486.814209,237.216843 487.271912,234.783676 490.893005,233.657745 
	C492.000336,233.313416 493.051239,232.781357 494.116821,232.310028 
	C500.187012,229.625092 501.428345,230.164871 503.542419,236.426636 
	C505.897552,243.402283 505.915436,243.470444 512.896912,241.638672 
	C523.037903,238.977951 533.187317,236.337280 543.264343,233.448303 
	C554.249573,230.298950 564.080383,225.128098 570.498535,215.230011 
	C583.725037,194.832062 573.328308,168.448654 549.517639,161.237411 
	C540.908386,158.630035 532.044250,159.040329 523.280457,158.425446 
	C513.155396,157.715057 502.986389,157.637939 492.838287,157.239655 
	C491.412476,157.183716 489.783630,157.575470 488.747223,156.069519 
	C498.190887,139.831909 533.643005,123.554100 565.607483,138.510376 
	C598.693176,153.991272 612.291870,192.115341 595.771973,224.618835 
M499.315765,245.564819 
	C506.054535,242.347443 499.588196,239.352631 499.776733,234.948746 
	C497.363373,237.783371 492.928925,236.635147 493.790924,240.590897 
	C494.253754,242.714783 494.015594,246.975906 499.315765,245.564819 
z"/>
<path fill="#000000" opacity="1.000000" stroke="none" 
	d="
M307.198853,395.974579 
	C306.904541,402.104675 306.506256,407.748871 306.367523,413.399445 
	C306.291107,416.511078 304.756683,417.318695 301.953583,417.340088 
	C298.994385,417.362732 297.651428,416.235535 297.800110,413.223450 
	C298.472198,399.604431 299.107635,385.983521 299.722351,372.361786 
	C299.820648,370.183472 300.736694,368.837891 303.007202,368.850464 
	C306.052734,368.867310 309.374146,367.912018 311.043182,371.979614 
	C313.631378,378.287292 316.512085,384.474976 319.270172,390.712921 
	C320.133759,392.666138 321.001862,394.617340 322.426544,397.828735 
	C326.251221,388.923920 329.695068,381.131287 332.931519,373.253510 
	C334.135559,370.322754 335.698792,368.788818 339.152100,368.689545 
	C343.622284,368.560944 345.324585,369.971161 345.352997,374.640808 
	C345.427856,386.947357 346.009857,399.250397 346.334229,411.556274 
	C346.405029,414.241547 347.371185,417.290527 342.623169,417.411438 
	C337.857422,417.532806 337.644379,414.851624 337.671417,411.373505 
	C337.739349,402.639221 337.693909,393.904022 337.693909,385.169189 
	C337.182343,385.135376 336.670776,385.101562 336.159210,385.067749 
	C333.222473,391.723083 330.227722,398.353699 327.379395,405.046661 
	C326.330627,407.511017 325.217621,409.312134 322.045197,409.297211 
	C318.858276,409.282196 317.810516,407.432526 316.784515,404.968384 
	C313.978851,398.230316 311.016266,391.557587 307.203217,384.867706 
	C307.203217,388.408936 307.203217,391.950134 307.198853,395.974579 
z"/>
<path fill="#000000" opacity="1.000000" stroke="none" 
	d="
M503.540375,185.775238 
	C504.341949,185.082611 504.849792,184.409668 505.420380,184.351349 
	C514.188904,183.455338 522.868469,184.307678 531.396606,186.302612 
	C533.640564,186.827530 534.474304,189.264038 534.298340,191.602554 
	C533.812866,198.053497 533.430542,204.522217 532.622986,210.935501 
	C532.059326,215.412674 529.117188,217.572159 524.545288,217.139786 
	C518.601685,216.577713 512.663635,215.954422 506.727570,215.316437 
	C501.878235,214.795227 499.820465,212.533417 500.524811,207.704041 
	C501.574005,200.510147 500.948822,193.104843 503.540375,185.775238 
z"/>
<path fill="#000000" opacity="1.000000" stroke="none" 
	d="
M417.319733,403.419739 
	C420.990326,393.208710 424.617798,383.393890 427.964447,373.484222 
	C429.168518,369.918945 431.128143,368.603851 434.896698,368.670624 
	C438.406372,368.732788 439.832977,370.323090 440.890442,373.351990 
	C445.267914,385.889954 449.841461,398.359344 454.290802,410.872528 
	C454.937164,412.690338 456.072937,414.481262 455.309113,416.556610 
	C447.883972,418.381622 446.523224,417.938416 444.942047,411.010742 
	C443.718689,405.650848 441.212006,403.787964 435.691589,404.059204 
	C424.821411,404.593262 426.513947,403.113464 423.283020,412.860443 
	C421.646149,417.798523 420.209229,418.278992 412.825409,416.304382 
	C414.277740,412.112976 415.721710,407.945740 417.319733,403.419739 
M439.227142,395.580231 
	C438.895447,389.969849 436.350861,385.061737 434.355408,379.271362 
	C432.386810,385.135162 429.825500,390.082581 429.278809,395.963928 
	C432.814026,395.963928 435.753723,395.963928 439.227142,395.580231 
z"/>
<path fill="#000000" opacity="1.000000" stroke="none" 
	d="
M568.122925,380.488770 
	C574.452271,382.432831 576.906738,386.896973 577.094177,392.682281 
	C577.314819,399.493866 577.081604,406.318939 577.197144,413.135620 
	C577.254089,416.498077 575.589478,417.360046 572.555786,417.352509 
	C569.502258,417.344971 567.870789,416.396698 567.919678,413.081482 
	C568.010376,406.929352 567.889709,400.774445 567.936462,394.621277 
	C567.966431,390.674988 566.428833,388.237061 562.196167,388.082001 
	C557.594299,387.913422 554.133911,390.586182 554.017029,394.815826 
	C553.856323,400.631836 553.934937,406.457245 554.034485,412.276550 
	C554.092957,415.693512 553.054382,417.475403 549.164734,417.382477 
	C545.455994,417.293884 544.752869,415.473175 544.770020,412.346497 
	C544.847534,398.210175 544.895996,384.072632 544.779236,369.936981 
	C544.749023,366.274353 546.103088,364.861847 549.760010,364.963196 
	C553.748230,365.073730 553.692322,367.437561 553.567383,370.373932 
	C553.384583,374.672089 553.520386,378.983795 553.520386,383.774963 
	C558.317993,382.018127 562.481201,378.569122 568.122925,380.488770 
z"/>
<path fill="#000000" opacity="1.000000" stroke="none" 
	d="
M643.740234,386.895172 
	C648.996155,380.714874 655.194946,378.355408 662.711365,380.841949 
	C669.865234,383.208679 672.307739,389.040863 673.135559,395.902344 
	C673.576538,399.557159 672.504089,401.562653 668.302979,401.358307 
	C663.150757,401.107697 657.976379,401.326508 652.811584,401.318787 
	C648.777039,401.312775 648.772522,403.392303 650.350708,406.157471 
	C652.633484,410.157135 658.149841,411.688538 664.207642,410.021454 
	C666.591187,409.365509 669.022766,407.943237 670.206604,411.716980 
	C671.480530,415.777863 668.322632,416.140076 665.909790,416.893524 
	C657.158264,419.626465 648.601624,417.525757 643.960083,411.662140 
	C639.010315,405.409119 638.831543,395.439819 643.740234,386.895172 
M655.693481,394.771851 
	C658.553345,394.421875 661.624207,395.576111 664.438965,393.715668 
	C663.752441,389.168671 661.089355,387.133606 656.864807,387.301880 
	C652.740540,387.466187 650.153259,389.539307 649.687256,393.935638 
	C651.513306,395.038788 653.209412,394.661163 655.693481,394.771851 
z"/>
<path fill="#000000" opacity="1.000000" stroke="none" 
	d="
M501.500793,409.651978 
	C504.748016,408.268372 505.747528,410.033722 506.544891,412.318085 
	C507.315796,414.526672 505.888702,415.295288 504.327332,416.081635 
	C496.218170,420.165253 484.661713,417.872162 479.735931,411.188995 
	C474.311066,403.828674 475.207703,391.191833 481.605072,384.846313 
	C486.637268,379.854797 493.556763,378.560364 500.036346,381.398315 
	C505.806213,383.925385 509.466095,390.463379 509.241638,397.285492 
	C509.140991,400.344299 507.785614,401.360596 504.911835,401.309723 
	C499.747467,401.218353 494.579498,401.271667 489.414062,401.340851 
	C487.997528,401.359802 486.198181,400.887115 485.570801,402.795624 
	C485.049438,404.381561 485.917114,405.800140 486.910400,406.903290 
	C490.907776,411.342712 495.835693,411.524658 501.500793,409.651978 
M499.887085,391.476349 
	C497.998260,387.391693 494.588531,386.574585 490.702423,387.649536 
	C487.604370,388.506470 485.659210,390.604370 485.975494,394.715454 
	C490.158661,394.715454 494.123199,394.740021 498.087219,394.703705 
	C499.739563,394.688568 500.581116,393.905701 499.887085,391.476349 
z"/>
<path fill="#000000" opacity="1.000000" stroke="none" 
	d="
M720.401306,394.610321 
	C722.553772,394.502197 723.670593,393.746033 723.566772,391.836182 
	C723.476440,390.172729 722.464478,389.113708 721.073669,388.366058 
	C717.487427,386.438324 713.892639,387.432861 710.446411,388.638611 
	C708.018127,389.488251 706.513306,389.706787 705.529236,386.707550 
	C704.577148,383.806061 705.876526,382.593292 708.221497,381.963043 
	C711.259033,381.146606 714.335938,380.172760 717.441650,379.970764 
	C726.830139,379.360077 732.279419,384.547760 732.336731,393.824860 
	C732.382812,401.288666 732.346069,408.752991 732.346069,416.476288 
	C729.058472,418.126648 726.222168,417.605957 724.147522,414.154388 
	C721.137878,415.681458 718.521423,417.482300 715.320618,417.974213 
	C709.950256,418.799469 704.669128,416.128052 703.010864,411.637939 
	C700.992126,406.171356 703.028809,400.183868 707.994019,397.381104 
	C711.699585,395.289368 715.769348,394.557861 720.401306,394.610321 
M711.321350,408.108673 
	C712.623291,411.409790 715.366028,411.219818 717.997375,410.576447 
	C720.643677,409.929474 723.076965,408.524902 723.511230,405.533539 
	C723.767944,403.764954 724.599854,401.392059 721.858704,400.486450 
	C717.844543,399.160248 712.064880,402.900024 711.321350,408.108673 
z"/>
<path fill="#000000" opacity="1.000000" stroke="none" 
	d="
M365.355316,382.801880 
	C377.800232,376.463440 386.112946,381.066895 386.782135,394.538879 
	C387.078766,400.511017 386.813812,406.509918 386.855103,412.496338 
	C386.876923,415.656189 385.846252,417.390808 382.227234,417.382263 
	C378.677856,417.373871 377.566620,415.908630 377.646637,412.579285 
	C377.786499,406.759796 377.667358,400.934235 377.667572,395.111206 
	C377.667725,391.086090 376.201263,388.275421 371.727417,388.076660 
	C367.169098,387.874084 363.452423,391.009155 363.351501,395.329773 
	C363.215546,401.149872 363.169006,406.978729 363.334106,412.796722 
	C363.434448,416.331696 361.918549,417.401947 358.564087,417.386475 
	C355.149445,417.370667 354.449432,415.885284 354.515991,412.772675 
	C354.707977,403.792969 354.565155,394.806488 354.612396,385.822968 
	C354.621399,384.113373 353.689362,381.773224 356.092133,381.092865 
	C358.251556,380.481415 360.803711,379.981293 362.185181,382.789795 
	C363.059845,384.568024 364.068604,383.384277 365.355316,382.801880 
z"/>
<path fill="#000000" opacity="1.000000" stroke="none" 
	d="
M626.968201,398.997528 
	C626.958984,403.492096 626.939026,407.487274 626.940857,411.482483 
	C626.942322,414.671173 626.801208,417.348907 622.293091,417.404297 
	C617.773804,417.459808 617.638245,414.942535 617.665283,411.645081 
	C617.745789,401.823944 617.562744,391.998901 617.770630,382.181488 
	C617.853149,378.282837 616.521484,376.614746 612.597717,376.974060 
	C610.782898,377.140289 608.938477,376.985657 607.107483,376.971527 
	C604.481201,376.951294 603.118408,375.741608 603.157776,372.998138 
	C603.197998,370.198792 604.243896,368.708740 607.315125,368.735840 
	C617.302429,368.823883 627.291199,368.791901 637.279114,368.745483 
	C639.908081,368.733276 641.231079,369.685638 641.320190,372.512848 
	C641.411804,375.419739 640.366699,376.671875 637.399780,376.978607 
	C626.914368,378.062622 626.921692,378.143494 626.939148,389.009399 
	C626.944275,392.172333 626.957397,395.335236 626.968201,398.997528 
z"/>
<path fill="#000000" opacity="1.000000" stroke="none" 
	d="
M415.094727,188.460632 
	C422.793304,188.248322 430.100677,188.054993 437.406616,188.099396 
	C442.282776,188.129044 444.766144,190.560913 445.443726,195.669174 
	C447.399323,210.412369 449.772186,225.100204 452.028503,240.125076 
	C449.347565,239.936462 449.400116,237.928207 448.864716,236.615356 
	C445.225311,227.691360 441.516663,218.790253 438.142517,209.765060 
	C435.186554,201.858444 429.491699,198.360962 421.342957,198.226471 
	C420.013062,198.204514 418.681885,198.210022 417.353607,198.151337 
	C414.625977,198.030823 412.417908,197.004578 411.744812,194.148239 
	C411.133606,191.554581 412.118225,189.587387 415.094727,188.460632 
z"/>
<path fill="#000000" opacity="1.000000" stroke="none" 
	d="
M535.171875,322.126770 
	C538.237244,330.724792 536.142578,337.252350 529.438477,340.907166 
	C523.559143,344.112366 515.970337,342.563141 511.871796,337.320923 
	C507.054993,331.160126 508.107727,322.336212 514.208008,317.739410 
	C521.116821,312.533356 529.234375,314.115540 535.171875,322.126770 
z"/>
<path fill="#000000" opacity="1.000000" stroke="none" 
	d="
M513.507812,394.071960 
	C512.099854,385.192963 517.958435,379.324890 527.183899,379.968750 
	C528.828918,380.083557 530.481995,380.467896 532.070801,380.934235 
	C537.912537,382.648987 538.327637,384.009369 534.620361,389.289246 
	C531.717773,389.118317 529.216553,386.866852 526.091431,387.292755 
	C524.175598,387.553894 522.343140,387.909149 521.929504,390.124664 
	C521.559937,392.104279 522.974365,393.233459 524.506104,393.966217 
	C527.353027,395.328156 530.292664,396.494934 533.179626,397.774750 
	C537.112854,399.518433 539.095215,402.721069 538.999756,406.863464 
	C538.905884,410.938477 536.889893,414.176117 533.158875,416.109406 
	C527.008728,419.296204 520.888000,418.318207 514.861023,415.758087 
	C512.438660,414.729095 512.547974,412.875580 513.624084,410.786652 
	C514.612244,408.868439 515.772339,407.905273 517.952332,409.139740 
	C520.323669,410.482574 522.901062,411.039917 525.638733,410.832153 
	C527.785339,410.669250 529.707092,409.974213 530.241394,407.716309 
	C530.784180,405.422882 528.819336,404.511353 527.218933,403.715851 
	C525.139343,402.682190 522.909973,401.954651 520.777893,401.020416 
	C517.654724,399.651794 514.932312,397.814148 513.507812,394.071960 
z"/>
<path fill="#000000" opacity="1.000000" stroke="none" 
	d="
M459.681244,377.020294 
	C459.684235,374.530914 459.753510,372.534424 459.675018,370.543793 
	C459.554108,367.477966 459.685150,364.929840 463.932587,364.959961 
	C467.936310,364.988373 468.443542,367.116272 468.407379,370.400330 
	C468.281219,381.863739 468.364197,393.329346 468.317017,404.793884 
	C468.306183,407.423615 468.472504,409.758636 471.566620,410.735687 
	C474.257416,411.585327 473.397369,414.031372 473.292725,415.839447 
	C473.163208,418.077484 471.117249,418.033203 469.483002,418.084595 
	C463.623932,418.268860 459.825043,414.444366 459.736237,407.921692 
	C459.598267,397.788025 459.688080,387.651245 459.681244,377.020294 
z"/>
<path fill="#000000" opacity="1.000000" stroke="none" 
	d="
M690.101501,391.290924 
	C686.863464,395.978668 688.481628,400.948944 688.128296,405.664246 
	C687.955017,407.977142 688.016479,410.317841 688.122864,412.639038 
	C688.276794,415.997925 686.892822,417.386047 683.420715,417.368225 
	C679.873779,417.350037 678.790466,415.764832 678.824951,412.494049 
	C678.915955,403.855988 678.802856,395.215851 678.875427,386.577423 
	C678.893494,384.433289 677.873779,381.636688 681.293640,380.917999 
	C684.327209,380.280518 686.540405,381.250671 687.406677,385.046661 
	C690.099670,382.314758 692.712463,380.228729 696.188599,379.949280 
	C698.220398,379.785950 700.679016,379.771240 700.436462,382.646332 
	C700.250183,384.854340 701.677612,388.610748 697.074768,388.338165 
	C694.375305,388.178345 692.235718,389.214050 690.101501,391.290924 
z"/>
<path fill="#000000" opacity="1.000000" stroke="none" 
	d="
M479.690979,205.311401 
	C482.728912,204.077194 484.556671,205.169510 485.855988,207.487610 
	C486.588593,208.794586 487.253906,210.139557 487.938477,211.473114 
	C492.171722,219.719788 492.080963,219.550049 483.751831,223.939056 
	C479.621155,226.115707 476.851410,225.765274 474.995300,221.319397 
	C474.931366,221.166260 474.843414,221.022873 474.763184,220.876862 
	C468.661407,209.770218 469.055939,211.044876 479.690979,205.311401 
z"/>
<path fill="#000000" opacity="1.000000" stroke="none" 
	d="
M393.152710,398.809753 
	C392.776276,395.052185 394.075562,393.444794 397.627228,393.652710 
	C401.101349,393.856140 404.598694,393.775269 408.081818,393.676788 
	C410.964478,393.595337 411.852783,395.118317 411.813507,397.692444 
	C411.776672,400.105774 410.784363,401.374451 408.211060,401.317566 
	C404.394958,401.233185 400.575684,401.291138 396.757782,401.287201 
	C395.188477,401.285553 393.746033,401.061584 393.152710,398.809753 
z"/>
<path fill="#000000" opacity="1.000000" stroke="none" 
	d="
M594.936279,401.302124 
	C592.791504,401.302216 591.125854,401.309479 589.460388,401.299622 
	C583.023010,401.261505 582.859497,401.045319 584.170532,394.099152 
	C588.372009,393.250732 592.697327,393.891754 596.982117,393.693115 
	C599.699707,393.567108 601.398071,394.306885 601.397156,397.548309 
	C601.396179,400.860291 599.576599,401.442139 596.914246,401.295990 
	C596.416321,401.268616 595.915161,401.298157 594.936279,401.302124 
z"/>
</svg>